<?xml version="1.0" encoding="UTF-8" standalone="no"?><!DOCTYPE svg PUBLIC "-//W3C//DTD SVG 1.1//EN" "http://www.w3.org/Graphics/SVG/1.1/DTD/svg11.dtd"><svg width="100%" height="100%" viewBox="0 0 96 96" version="1.1" xmlns="http://www.w3.org/2000/svg" xmlns:xlink="http://www.w3.org/1999/xlink" xml:space="preserve" xmlns:serif="http://www.serif.com/" style="fill-rule:evenodd;clip-rule:evenodd;stroke-linejoin:round;stroke-miterlimit:2;"><g id="stat-logo"><path d="M70.982,13.998c0,0 3.239,1.847 6.206,4.814c2.967,2.967 4.814,6.206 4.814,6.206c-0,-0 1.017,2.183 1.477,3.294c0.46,1.112 1.285,3.374 1.285,3.374l1.238,5.363l0.747,5.453l0.25,5.498c-0,0 0.061,3.227 -0.624,8.225c-0.684,4.998 -1.611,8.089 -1.611,8.089c-0,-0 -0.825,2.262 -1.285,3.374c-0.46,1.111 -1.477,3.294 -1.477,3.294c-0,0 -1.847,3.239 -4.814,6.206c-2.967,2.967 -6.206,4.814 -6.206,4.814c0,-0 -2.183,1.017 -3.294,1.477c-1.112,0.46 -3.374,1.285 -3.374,1.285l-5.363,1.238l-5.453,0.747l-5.498,0.25c-0,-0 -3.227,0.061 -8.225,-0.624c-4.998,-0.684 -8.089,-1.611 -8.089,-1.611c0,-0 -2.262,-0.825 -3.374,-1.285c-1.111,-0.46 -3.294,-1.477 -3.294,-1.477c-0,-0 -3.239,-1.847 -6.206,-4.814c-2.967,-2.967 -4.814,-6.206 -4.814,-6.206c0,0 -1.017,-2.183 -1.477,-3.294c-0.46,-1.112 -1.285,-3.374 -1.285,-3.374l-1.238,-5.363l-0.747,-5.453l-0.25,-5.498c0,0 -0.061,-3.227 0.624,-8.225c0.684,-4.998 1.611,-8.089 1.611,-8.089c0,0 0.825,-2.262 1.285,-3.374c0.46,-1.111 1.477,-3.294 1.477,-3.294c0,-0 1.847,-3.239 4.814,-6.206c2.967,-2.967 6.206,-4.814 6.206,-4.814c-0,0 2.183,-1.017 3.294,-1.477c1.112,-0.46 3.374,-1.285 3.374,-1.285l5.363,-1.238l5.453,-0.747l5.498,-0.25c-0,0 3.227,-0.061 8.225,0.624c4.998,0.684 8.089,1.611 8.089,1.611c-0,0 2.262,0.825 3.374,1.285c1.111,0.46 3.294,1.477 3.294,1.477Zm-4.57,8.628l-0.002,-0.001c-0.631,-0.292 -1.771,-0.814 -2.453,-1.096c-0.732,-0.303 -2.029,-0.784 -2.652,-1.011c-0.683,-0.184 -3.006,-0.769 -6.404,-1.234c-3.661,-0.502 -6.157,-0.534 -6.638,-0.535l-4.877,0.222l-4.575,0.626c-0,0 -4.341,1.003 -4.347,1.005c-0.665,0.245 -1.768,0.656 -2.421,0.927c-0.682,0.282 -1.821,0.803 -2.458,1.099c-0.632,0.396 -2.309,1.508 -3.879,3.078c-1.572,1.572 -2.685,3.251 -3.081,3.884c-0.292,0.631 -0.814,1.771 -1.096,2.453c-0.303,0.732 -0.784,2.029 -1.011,2.652c-0.184,0.683 -0.769,3.006 -1.234,6.404c-0.502,3.661 -0.534,6.157 -0.535,6.638l0.222,4.877l0.626,4.575c0,0 1.003,4.341 1.005,4.347c0.245,0.665 0.656,1.768 0.927,2.421c0.282,0.682 0.803,1.821 1.099,2.458c0.396,0.632 1.508,2.309 3.078,3.879c1.572,1.572 3.251,2.685 3.884,3.081c0.631,0.292 1.771,0.814 2.453,1.096c0.732,0.303 2.029,0.784 2.652,1.011c0.683,0.184 3.006,0.769 6.404,1.234c3.661,0.502 6.157,0.534 6.638,0.535l4.877,-0.222l4.575,-0.626c0,-0 4.341,-1.003 4.347,-1.005c0.665,-0.245 1.768,-0.656 2.421,-0.927c0.682,-0.282 1.821,-0.803 2.458,-1.099c0.632,-0.396 2.309,-1.508 3.879,-3.078c1.572,-1.572 2.685,-3.251 3.081,-3.884c0.292,-0.631 0.814,-1.771 1.096,-2.453c0.303,-0.732 0.784,-2.029 1.011,-2.652c0.184,-0.683 0.769,-3.006 1.234,-6.404c0.502,-3.661 0.534,-6.157 0.535,-6.638l-0.222,-4.877l-0.626,-4.575c-0,-0 -1.003,-4.341 -1.005,-4.347c-0.245,-0.665 -0.656,-1.768 -0.927,-2.421c-0.282,-0.682 -0.803,-1.821 -1.099,-2.458c-0.396,-0.632 -1.508,-2.309 -3.078,-3.879c-1.572,-1.572 -3.251,-2.685 -3.882,-3.08Z" style="fill:none;"/><rect x="-0" y="-0" width="96" height="96" style="fill:none;"/><path d="M44.106,86.84c-1.214,-0.093 -2.675,-0.238 -4.331,-0.465c-4.998,-0.684 -8.089,-1.611 -8.089,-1.611c0,-0 -2.262,-0.825 -3.374,-1.285c-1.111,-0.46 -3.294,-1.477 -3.294,-1.477c-0,-0 -3.239,-1.847 -6.206,-4.814c-2.967,-2.967 -4.814,-6.206 -4.814,-6.206c0,0 -1.017,-2.183 -1.477,-3.294c-0.46,-1.112 -1.285,-3.374 -1.285,-3.374l-1.238,-5.363l-0.747,-5.453l-0.25,-5.498c0,0 -0.061,-3.227 0.624,-8.225c0.684,-4.998 1.611,-8.089 1.611,-8.089c0,0 0.825,-2.262 1.285,-3.374c0.46,-1.111 1.477,-3.294 1.477,-3.294c0,-0 1.847,-3.239 4.814,-6.206c2.967,-2.967 6.206,-4.814 6.206,-4.814c-0,0 2.183,-1.017 3.294,-1.477c1.112,-0.46 3.374,-1.285 3.374,-1.285l5.363,-1.238l5.453,-0.747l1.604,-0.073l0,9.76l-0.72,0.033l-4.575,0.626c-0,0 -4.341,1.003 -4.347,1.005c-0.665,0.245 -1.768,0.656 -2.421,0.927c-0.682,0.282 -1.821,0.803 -2.458,1.099c-0.632,0.396 -2.309,1.508 -3.879,3.078c-1.572,1.572 -2.685,3.251 -3.081,3.884c-0.292,0.631 -0.814,1.771 -1.096,2.453c-0.303,0.732 -0.784,2.029 -1.011,2.652c-0.184,0.683 -0.769,3.006 -1.234,6.404c-0.502,3.661 -0.534,6.157 -0.535,6.638l0.222,4.877l0.626,4.575c0,0 1.003,4.341 1.005,4.347c0.245,0.665 0.656,1.768 0.927,2.421c0.282,0.682 0.803,1.821 1.099,2.458c0.396,0.632 1.508,2.309 3.078,3.879c1.572,1.572 3.251,2.685 3.884,3.081c0.631,0.292 1.771,0.814 2.453,1.096c0.732,0.303 2.029,0.784 2.652,1.011c0.683,0.184 3.006,0.769 6.404,1.234c1.119,0.153 2.13,0.263 3.007,0.341l0,9.783Z" style="fill:#3272af;"/><path d="M51.908,9.162c1.211,0.092 2.667,0.237 4.317,0.463c4.998,0.684 8.089,1.611 8.089,1.611c-0,0 2.262,0.825 3.374,1.285c1.111,0.46 3.294,1.477 3.294,1.477c0,0 3.239,1.847 6.206,4.814c2.967,2.967 4.814,6.206 4.814,6.206c-0,-0 1.017,2.183 1.477,3.294c0.46,1.112 1.285,3.374 1.285,3.374l1.238,5.363l0.747,5.453l0.073,1.604l-9.76,0l-0.033,-0.72l-0.626,-4.575c-0,-0 -1.003,-4.341 -1.005,-4.347c-0.245,-0.665 -0.656,-1.768 -0.927,-2.421c-0.282,-0.682 -0.803,-1.821 -1.099,-2.458c-0.396,-0.632 -1.508,-2.309 -3.078,-3.879c-1.572,-1.572 -3.252,-2.686 -3.883,-3.081c-0.631,-0.291 -1.772,-0.814 -2.454,-1.096c-0.732,-0.303 -2.029,-0.784 -2.652,-1.011c-0.683,-0.184 -3.006,-0.769 -6.404,-1.234c-1.113,-0.153 -2.119,-0.262 -2.993,-0.34l-0,-9.782Z" style="fill:#2d62a3;"/><path d="M86.838,51.908c-0.092,1.211 -0.237,2.667 -0.463,4.317c-0.684,4.998 -1.611,8.089 -1.611,8.089c-0,-0 -0.825,2.262 -1.285,3.374c-0.46,1.111 -1.477,3.294 -1.477,3.294c-0,0 -1.847,3.239 -4.814,6.206c-2.967,2.967 -6.206,4.814 -6.206,4.814c0,-0 -2.183,1.017 -3.294,1.477c-1.112,0.46 -3.374,1.285 -3.374,1.285l-5.363,1.238l-5.453,0.747l-1.59,0.072l-0,-9.76l0.706,-0.032l4.575,-0.626c0,-0 4.341,-1.003 4.347,-1.005c0.665,-0.245 1.768,-0.656 2.421,-0.927c0.682,-0.282 1.821,-0.803 2.458,-1.099c0.632,-0.396 2.309,-1.508 3.879,-3.078c1.572,-1.572 2.685,-3.251 3.081,-3.884c0.292,-0.631 0.814,-1.771 1.096,-2.453c0.303,-0.732 0.784,-2.029 1.011,-2.652c0.184,-0.683 0.769,-3.006 1.234,-6.404c0.153,-1.113 0.262,-2.119 0.34,-2.993l9.782,-0Z" style="fill:#6ba0dc;"/></g></svg>