<?xml version="1.0" encoding="UTF-8" standalone="no"?><!DOCTYPE svg PUBLIC "-//W3C//DTD SVG 1.1//EN" "http://www.w3.org/Graphics/SVG/1.1/DTD/svg11.dtd"><svg width="100%" height="100%" viewBox="0 0 1296 432" version="1.1" xmlns="http://www.w3.org/2000/svg" xmlns:xlink="http://www.w3.org/1999/xlink" xml:space="preserve" xmlns:serif="http://www.serif.com/" style="fill-rule:evenodd;clip-rule:evenodd;stroke-linejoin:round;stroke-miterlimit:2;"><g id="stat-logo"><path d="M369.964,147.996c0,0 6.479,3.694 12.412,9.628c5.934,5.933 9.628,12.412 9.628,12.412c-0,-0 2.033,4.366 2.954,6.588c0.92,2.223 2.57,6.748 2.57,6.748l2.476,10.726l1.494,10.906l0.499,10.996c0,0 0.123,6.453 -1.246,16.449c-1.369,9.996 -3.223,16.179 -3.223,16.179c-0,-0 -1.65,4.525 -2.57,6.748c-0.921,2.222 -2.954,6.588 -2.954,6.588c-0,0 -3.694,6.479 -9.628,12.412c-5.933,5.934 -12.412,9.628 -12.412,9.628c0,-0 -4.366,2.033 -6.588,2.954c-2.223,0.92 -6.748,2.57 -6.748,2.57l-10.726,2.476l-10.906,1.494l-10.996,0.499c-0,0 -6.453,0.123 -16.449,-1.246c-9.996,-1.369 -16.179,-3.223 -16.179,-3.223c0,-0 -4.525,-1.65 -6.748,-2.57c-2.222,-0.921 -6.588,-2.954 -6.588,-2.954c-0,-0 -6.479,-3.694 -12.412,-9.628c-5.934,-5.933 -9.628,-12.412 -9.628,-12.412c0,0 -2.033,-4.366 -2.954,-6.588c-0.92,-2.223 -2.57,-6.748 -2.57,-6.748l-2.476,-10.726l-1.494,-10.906l-0.499,-10.996c-0,0 -0.123,-6.453 1.246,-16.449c1.369,-9.996 3.223,-16.179 3.223,-16.179c0,0 1.65,-4.525 2.57,-6.748c0.921,-2.222 2.954,-6.588 2.954,-6.588c0,-0 3.694,-6.479 9.628,-12.412c5.933,-5.934 12.412,-9.628 12.412,-9.628c-0,0 4.366,-2.033 6.588,-2.954c2.223,-0.92 6.748,-2.57 6.748,-2.57l10.726,-2.476l10.906,-1.494l10.996,-0.499c-0,-0 6.453,-0.123 16.449,1.246c9.996,1.369 16.179,3.223 16.179,3.223c-0,0 4.525,1.65 6.748,2.57c2.222,0.921 6.588,2.954 6.588,2.954Zm-9.14,17.256l-0.004,-0.003c-1.262,-0.583 -3.541,-1.626 -4.906,-2.192c-1.463,-0.606 -4.057,-1.566 -5.304,-2.022c-1.366,-0.366 -6.011,-1.536 -12.807,-2.467c-7.323,-1.003 -12.315,-1.067 -13.278,-1.07l-9.752,0.443l-9.152,1.254c0,-0 -8.681,2.004 -8.692,2.008c-1.332,0.491 -3.537,1.314 -4.843,1.854c-1.364,0.565 -3.642,1.608 -4.915,2.198c-1.266,0.793 -4.619,3.017 -7.759,6.157c-3.145,3.145 -5.37,6.502 -6.163,7.768c-0.583,1.262 -1.626,3.541 -2.192,4.906c-0.606,1.463 -1.566,4.057 -2.022,5.304c-0.366,1.366 -1.536,6.011 -2.467,12.807c-1.003,7.323 -1.067,12.315 -1.07,13.278l0.443,9.752l1.254,9.152c-0,-0 2.004,8.681 2.008,8.692c0.491,1.332 1.314,3.537 1.854,4.843c0.565,1.364 1.608,3.642 2.198,4.915c0.793,1.266 3.017,4.619 6.157,7.759c3.145,3.145 6.502,5.37 7.768,6.163c1.262,0.583 3.541,1.626 4.906,2.192c1.463,0.606 4.057,1.566 5.304,2.022c1.366,0.366 6.011,1.536 12.807,2.467c7.323,1.003 12.315,1.067 13.278,1.07l9.752,-0.443l9.152,-1.254c-0,0 8.681,-2.004 8.692,-2.008c1.332,-0.491 3.537,-1.314 4.843,-1.854c1.364,-0.565 3.642,-1.608 4.915,-2.198c1.266,-0.793 4.619,-3.017 7.759,-6.157c3.145,-3.145 5.37,-6.502 6.163,-7.768c0.583,-1.262 1.626,-3.541 2.192,-4.906c0.606,-1.463 1.566,-4.057 2.022,-5.304c0.366,-1.366 1.536,-6.011 2.467,-12.807c1.003,-7.323 1.067,-12.315 1.07,-13.278l-0.443,-9.752l-1.254,-9.152c0,0 -2.004,-8.681 -2.008,-8.692c-0.491,-1.332 -1.314,-3.537 -1.854,-4.843c-0.565,-1.364 -1.608,-3.642 -2.198,-4.915c-0.793,-1.266 -3.017,-4.619 -6.157,-7.759c-3.145,-3.145 -6.502,-5.37 -7.764,-6.16Z" style="fill:none;"/><rect x="228" y="120" width="192" height="192" style="fill:none;"/><path d="M316.212,293.679c-2.428,-0.185 -5.35,-0.475 -8.661,-0.928c-9.996,-1.369 -16.179,-3.223 -16.179,-3.223c0,-0 -4.525,-1.65 -6.748,-2.57c-2.222,-0.921 -6.588,-2.954 -6.588,-2.954c-0,-0 -6.479,-3.694 -12.412,-9.628c-5.934,-5.933 -9.628,-12.412 -9.628,-12.412c0,0 -2.033,-4.366 -2.954,-6.588c-0.92,-2.223 -2.57,-6.748 -2.57,-6.748l-2.476,-10.726l-1.494,-10.906l-0.499,-10.996c-0,0 -0.123,-6.453 1.246,-16.449c1.369,-9.996 3.223,-16.179 3.223,-16.179c0,0 1.65,-4.525 2.57,-6.748c0.921,-2.222 2.954,-6.588 2.954,-6.588c0,-0 3.694,-6.479 9.628,-12.412c5.933,-5.934 12.412,-9.628 12.412,-9.628c-0,0 4.366,-2.033 6.588,-2.954c2.223,-0.92 6.748,-2.57 6.748,-2.57l10.726,-2.476l10.906,-1.494l3.208,-0.146l0,19.52l-1.439,0.065l-9.152,1.254c0,-0 -8.681,2.004 -8.692,2.008c-1.332,0.491 -3.537,1.314 -4.843,1.854c-1.364,0.565 -3.642,1.608 -4.915,2.198c-1.266,0.793 -4.619,3.017 -7.759,6.157c-3.145,3.145 -5.37,6.502 -6.163,7.768c-0.583,1.262 -1.626,3.541 -2.192,4.906c-0.606,1.463 -1.566,4.057 -2.022,5.304c-0.366,1.366 -1.536,6.011 -2.467,12.807c-1.003,7.323 -1.067,12.315 -1.07,13.278l0.443,9.752l1.254,9.152c-0,-0 2.004,8.681 2.008,8.692c0.491,1.332 1.314,3.537 1.854,4.843c0.565,1.364 1.608,3.642 2.198,4.915c0.793,1.266 3.017,4.619 6.157,7.759c3.145,3.145 6.502,5.37 7.768,6.163c1.262,0.583 3.541,1.626 4.906,2.192c1.463,0.606 4.057,1.566 5.304,2.022c1.366,0.366 6.011,1.536 12.807,2.467c2.239,0.307 4.261,0.526 6.015,0.682l0,19.565Z" style="fill:#3272af;"/><path d="M331.815,138.323c2.423,0.185 5.336,0.474 8.634,0.926c9.996,1.369 16.179,3.223 16.179,3.223c-0,0 4.525,1.65 6.748,2.57c2.222,0.921 6.588,2.954 6.588,2.954c0,0 6.479,3.694 12.412,9.628c5.934,5.933 9.628,12.412 9.628,12.412c-0,-0 2.033,4.366 2.954,6.588c0.92,2.223 2.57,6.748 2.57,6.748l2.476,10.726l1.494,10.906l0.146,3.208l-19.52,0l-0.065,-1.439l-1.254,-9.152c0,0 -2.004,-8.681 -2.008,-8.692c-0.491,-1.332 -1.314,-3.537 -1.854,-4.843c-0.565,-1.364 -1.608,-3.642 -2.198,-4.915c-0.793,-1.266 -3.017,-4.619 -6.157,-7.759c-3.145,-3.145 -6.504,-5.371 -7.766,-6.161c-1.262,-0.584 -3.543,-1.628 -4.908,-2.194c-1.463,-0.606 -4.057,-1.566 -5.304,-2.022c-1.366,-0.366 -6.011,-1.536 -12.807,-2.467c-2.228,-0.305 -4.24,-0.523 -5.988,-0.679l0,-19.566Z" style="fill:#2d62a3;"/><path d="M401.677,223.815c-0.185,2.423 -0.474,5.336 -0.926,8.634c-1.369,9.996 -3.223,16.179 -3.223,16.179c-0,-0 -1.65,4.525 -2.57,6.748c-0.921,2.222 -2.954,6.588 -2.954,6.588c-0,0 -3.694,6.479 -9.628,12.412c-5.933,5.934 -12.412,9.628 -12.412,9.628c0,-0 -4.366,2.033 -6.588,2.954c-2.223,0.92 -6.748,2.57 -6.748,2.57l-10.726,2.476l-10.906,1.494l-3.181,0.144l0,-19.519l1.412,-0.064l9.152,-1.254c-0,0 8.681,-2.004 8.692,-2.008c1.332,-0.491 3.537,-1.314 4.843,-1.854c1.364,-0.565 3.642,-1.608 4.915,-2.198c1.266,-0.793 4.619,-3.017 7.759,-6.157c3.145,-3.145 5.37,-6.502 6.163,-7.768c0.583,-1.262 1.626,-3.541 2.192,-4.906c0.606,-1.463 1.566,-4.057 2.022,-5.304c0.366,-1.366 1.536,-6.011 2.467,-12.807c0.305,-2.228 0.523,-4.24 0.679,-5.988l19.566,0Z" style="fill:#6ba0dc;"/></g><path d="M630,242.169c12.678,9.698 28.715,14.574 48.057,14.574c12.678,-0 22.268,-2.276 28.715,-6.881c6.447,-4.605 9.644,-10.944 9.644,-19.017c0,-7.585 -3.034,-12.895 -8.289,-16.362c-3.685,-2.384 -7.369,-3.901 -12.678,-5.201c-5.31,-1.246 -9.915,-1.842 -16.2,-2.492l-1.084,-0.109c-9.264,-0.921 -15.549,-1.896 -18.8,-2.926c-3.305,-1.029 -4.93,-2.654 -4.93,-4.93c-0,-4.713 6.285,-7.802 17.283,-7.802c10.89,0 21.726,2.763 32.508,8.344l8.777,-13.328c-5.093,-3.413 -11.107,-6.068 -18.042,-7.965c-6.989,-1.896 -14.249,-2.817 -21.888,-2.817c-10.782,0 -19.559,2.005 -25.085,5.147c-8.561,4.876 -11.974,12.245 -11.974,19.83c-0,7.043 2.98,12.353 8.994,15.874c5.959,3.522 15.928,6.014 29.907,7.423l3.088,0.325l0.379,0l0.054,0.054l0.488,0l0.054,0.054l0.108,0c7.531,0.759 12.408,1.572 14.737,2.384c3.088,1.084 4.66,2.872 4.66,5.31c-0,5.364 -7.315,8.885 -20.318,8.885c-7.368,0 -14.032,-1.029 -20.046,-3.034c-6.014,-2.004 -12.082,-5.093 -18.258,-9.21l-9.861,13.87Z" style="fill:#2071c1;fill-rule:nonzero;"/><path d="M761.035,193.028l-0,62.144l18.095,-0l0,-62.144l29.095,-0l-0,-16.2l-76.447,0l-0,16.2l29.257,-0Z" style="fill:#2071c1;fill-rule:nonzero;"/><path d="M873.106,221.526l-24.543,0l12.19,-24.489l12.353,24.489Zm-32.399,15.875l40.364,-0l8.993,17.771l19.18,-0l-40.255,-78.344l-15.875,0l-40.418,78.344l19.126,-0l8.885,-17.771Z" style="fill:#2071c1;fill-rule:nonzero;"/><path d="M942.81,193.028l-0,62.144l18.096,-0l-0,-62.144l29.094,-0l-0,-16.2l-76.447,0l-0,16.2l29.257,-0Z" style="fill:#2071c1;fill-rule:nonzero;"/></svg>